<svg xmlns="http://www.w3.org/2000/svg" viewBox="0 0 32 32" width="32" height="32">
  <defs>
    <linearGradient id="bgGradient" x1="0%" y1="0%" x2="100%" y2="100%">
      <stop offset="0%" style="stop-color:#00d4aa;stop-opacity:1" />
      <stop offset="100%" style="stop-color:#6c5ce7;stop-opacity:1" />
    </linearGradient>
    <linearGradient id="pipeGradient" x1="0%" y1="0%" x2="100%" y2="0%">
      <stop offset="0%" style="stop-color:#ffffff;stop-opacity:0.9" />
      <stop offset="50%" style="stop-color:#ffffff;stop-opacity:1" />
      <stop offset="100%" style="stop-color:#ffffff;stop-opacity:0.9" />
    </linearGradient>
    <filter id="shadow" x="-20%" y="-20%" width="140%" height="140%">
      <feDropShadow dx="0" dy="2" stdDeviation="1" flood-color="#000000" flood-opacity="0.3"/>
    </filter>
  </defs>
  
  <!-- Background circle with shadow -->
  <circle cx="16" cy="16" r="15" fill="url(#bgGradient)" filter="url(#shadow)"/>
  
  <!-- Main pipe segments -->
  <rect x="6" y="11" width="8" height="10" fill="url(#pipeGradient)" rx="2" ry="2"/>
  <rect x="18" y="11" width="8" height="10" fill="url(#pipeGradient)" rx="2" ry="2"/>
  
  <!-- Connecting pipe -->
  <rect x="14" y="13" width="4" height="6" fill="url(#pipeGradient)" rx="1" ry="1"/>
  
  <!-- Flow indicators -->
  <circle cx="10" cy="16" r="1.5" fill="#00d4aa" opacity="0.8"/>
  <circle cx="22" cy="16" r="1.5" fill="#6c5ce7" opacity="0.8"/>
  
  <!-- Flow arrows -->
  <path d="M 8 16 L 10 16 M 10 15 L 10 16 L 9 15 M 10 17 L 10 16 L 9 17" 
        stroke="#00d4aa" stroke-width="1.5" fill="none" opacity="0.9"/>
  <path d="M 24 16 L 22 16 M 22 15 L 22 16 L 23 15 M 22 17 L 22 16 L 23 17" 
        stroke="#6c5ce7" stroke-width="1.5" fill="none" opacity="0.9"/>
  
  <!-- Center connection highlight -->
  <circle cx="16" cy="16" r="2" fill="none" stroke="#ffffff" stroke-width="1" opacity="0.6"/>
</svg>
